<svg width="41" height="40" viewBox="0 0 41 40" fill="none" xmlns="http://www.w3.org/2000/svg">
<g clip-path="url(#clip0_31_385)">
<path d="M31.7546 34.5525H25.2895H23.5486H23.1727V25.8807H26.0088C26.728 25.8807 27.153 25.0634 26.728 24.4749L21.2111 16.8411C20.8596 16.3507 20.1322 16.3507 19.7808 16.8411L14.2638 24.4749C13.8388 25.0634 14.2556 25.8807 14.983 25.8807H17.8192V34.5525H17.4432H15.7023H8.2074C3.91643 34.3155 0.5 30.3024 0.5 25.9543C0.5 22.9547 2.12648 20.3392 4.5376 18.9252C4.31692 18.3286 4.20249 17.6911 4.20249 17.0209C4.20249 13.9559 6.67899 11.4794 9.74397 11.4794C10.406 11.4794 11.0435 11.5938 11.6402 11.8145C13.4138 8.05478 17.2389 5.44751 21.6851 5.44751C27.4391 5.45568 32.1796 9.86108 32.719 15.4761C37.1408 16.2362 40.5 20.331 40.5 24.9653C40.5 29.9183 36.6422 34.2093 31.7546 34.5525Z" fill="#2395FF"/>
</g>
<defs>
<clipPath id="clip0_31_385">
<rect width="40" height="40" fill="white" transform="translate(0.5)"/>
</clipPath>
</defs>
</svg>
